<?xml version="1.0" encoding="UTF-8"?>
<svg id="Camada_1" data-name="Camada 1" xmlns="http://www.w3.org/2000/svg" viewBox="0 0 2827.06 1170.4">
  <path d="M1442.62,898.15c23.1,50.53,114.14,43.83,224.83,44.29,100.55.42,205.42,6.06,220.46-46.06,7.62-26.4-15.25-63.96-42.89-105.14-55.35-82.52-79.85-136.52-85.67-170.62-5.9-34.56-30.27-117.01,16.4-119.13,38.03-1.73,39.67,78.47,48.82,111.55,9.51,34.37,44.44,84,92.64,173.41,22.15,41.09,22.29,69.73,40.47,109.92,22.87,50.58,86.51,46.48,187.06,46.06,110.69-.46,168.98-1.12,168.93-54.3-.04-36.37-46.9-72.55-123.72-128.61-74.62-54.45-155.83-124.95-205.2-233.97-17.38-38.38-13.44-101.66-10.98-156.56,2.46-55.08,7.87-104.49-10.98-122.43-17.8-16.94-52.65-18.69-90.33-16.48-37.48,2.2-77.76,8.67-107.8,8.83-24,.14-60.83-5.22-96.93-7.79-36.18-2.58-71.38-2.49-90.98,8.53-35.19,19.8-46.88,64.8-51.71,118.16-4.83,53.32-3.95,114.95-12.93,168.78-17.16,102.68-36.8,177.79-54.7,235.23-18.2,58.41-31.69,99.38-14.79,136.34Z"/>
  <path d="M1315.34,798.03c-22.6,139.83-121.11,140.64-253.53,144-103.53,2.62-215.37,5.2-252.83-107.74-30.86-93.02-24.68-234.38-28.39-299.95-5.75-101.75-53.05-219.56-51.51-262.86,1.32-37.41,27.19-63.79,66.04-65.73,10.41-.52,72.85,4.64,89.64,5.03,17.66.42,80.86-2.47,91.16-3.97,51.34-7.55,75.61,51.69,61.38,106.64-20.93,80.85-21.26,226.06,41.38,228.62,52.99,2.17,67.26-180.28,53.75-252.37-12.17-64.93,32.39-88.44,66.23-81.98,6.78,1.3,54.56,3.79,65.7,3.86,12.84.09,68.64-4.13,75.49-4.94,33.7-4,64.52,38.3,44.2,97.8-36.27,106.17-46.5,356.1-68.71,493.58v.02Z"/>
</svg>